<?xml version="1.0" standalone="no"?>
<!DOCTYPE svg PUBLIC "-//W3C//DTD SVG 20010904//EN"
 "http://www.w3.org/TR/2001/REC-SVG-20010904/DTD/svg10.dtd">
<svg version="1.0" xmlns="http://www.w3.org/2000/svg"
 width="700.000000pt" height="700.000000pt" viewBox="0 0 700.000000 700.000000"
 preserveAspectRatio="xMidYMid meet">
<metadata>
Created by potrace 1.14, written by Peter Selinger 2001-2017
</metadata>
<g transform="translate(0.000000,700.000000) scale(0.100000,-0.100000)"
fill="#000000" stroke="none">
<path d="M363 6981 c-79 -23 -161 -72 -223 -135 -55 -55 -115 -167 -130 -242
-6 -31 -8 -1180 -7 -3134 l2 -3085 22 -53 c65 -159 190 -274 342 -314 62 -16
269 -17 3126 -17 2670 -1 3068 1 3123 14 138 33 245 114 316 240 71 125 66
-150 66 3237 0 2217 -3 3071 -11 3110 -30 144 -123 268 -251 337 -120 65 121
61 -3248 60 -2901 0 -3068 -1 -3127 -18z"/>
</g>
</svg>
